<mxfile host="app.diagrams.net" agent="Mozilla/5.0 (Windows NT 10.0; Win64; x64) AppleWebKit/537.36 (KHTML, like Gecko) Chrome/136.0.0.0 Safari/537.36" version="27.1.1">
  <diagram name="Page-1" id="WK4tlAWXfX_Mo6qklTCv">
    <mxGraphModel dx="1426" dy="743" grid="1" gridSize="10" guides="1" tooltips="1" connect="1" arrows="1" fold="1" page="1" pageScale="1" pageWidth="850" pageHeight="1100" math="0" shadow="0">
      <root>
        <mxCell id="0" />
        <mxCell id="1" parent="0" />
        <mxCell id="sWQFLFDqvg5RQWqIcEr5-1" value="&lt;ol&gt;&lt;li&gt;&lt;font style=&quot;font-size: 14px;&quot;&gt;Script code with main fucntion.&lt;/font&gt;&lt;/li&gt;&lt;li&gt;&lt;font style=&quot;font-size: 14px;&quot;&gt;Test cases&lt;/font&gt;&lt;/li&gt;&lt;li&gt;&lt;font style=&quot;font-size: 14px;&quot;&gt;Coverage&lt;/font&gt;&lt;/li&gt;&lt;li&gt;&lt;font style=&quot;font-size: 14px;&quot;&gt;Unique Identifier&lt;/font&gt;&lt;/li&gt;&lt;li&gt;&lt;font style=&quot;font-size: 14px;&quot;&gt;Type&lt;/font&gt;&lt;/li&gt;&lt;/ol&gt;" style="rounded=0;whiteSpace=wrap;html=1;align=left;fillColor=#f5f5f5;fontColor=#333333;strokeColor=#666666;" vertex="1" parent="1">
          <mxGeometry x="40" y="150" width="240" height="130" as="geometry" />
        </mxCell>
        <mxCell id="sWQFLFDqvg5RQWqIcEr5-4" value="Model Objext For new app&lt;div&gt;&lt;br&gt;&lt;/div&gt;" style="text;html=1;align=center;verticalAlign=middle;whiteSpace=wrap;rounded=0;fontSize=15;fontStyle=1" vertex="1" parent="1">
          <mxGeometry x="20" y="110" width="200" height="30" as="geometry" />
        </mxCell>
        <mxCell id="sWQFLFDqvg5RQWqIcEr5-14" style="edgeStyle=orthogonalEdgeStyle;rounded=0;orthogonalLoop=1;jettySize=auto;html=1;entryX=0.5;entryY=0;entryDx=0;entryDy=0;" edge="1" parent="1" source="sWQFLFDqvg5RQWqIcEr5-5" target="sWQFLFDqvg5RQWqIcEr5-6">
          <mxGeometry relative="1" as="geometry" />
        </mxCell>
        <mxCell id="sWQFLFDqvg5RQWqIcEr5-5" value="Loan Terms &lt;br&gt;triggers the &lt;br&gt;same way&lt;div&gt;&lt;br&gt;&lt;/div&gt;" style="ellipse;whiteSpace=wrap;html=1;fillColor=#dae8fc;strokeColor=#6c8ebf;" vertex="1" parent="1">
          <mxGeometry x="635" y="90" width="130" height="100" as="geometry" />
        </mxCell>
        <mxCell id="sWQFLFDqvg5RQWqIcEr5-6" value="Calls JSON config as BAU - No change" style="rounded=0;whiteSpace=wrap;html=1;fillColor=#dae8fc;strokeColor=#6c8ebf;" vertex="1" parent="1">
          <mxGeometry x="620" y="250" width="160" height="60" as="geometry" />
        </mxCell>
        <mxCell id="sWQFLFDqvg5RQWqIcEr5-16" style="edgeStyle=orthogonalEdgeStyle;rounded=0;orthogonalLoop=1;jettySize=auto;html=1;entryX=1;entryY=0.5;entryDx=0;entryDy=0;" edge="1" parent="1" source="sWQFLFDqvg5RQWqIcEr5-7" target="sWQFLFDqvg5RQWqIcEr5-10">
          <mxGeometry relative="1" as="geometry" />
        </mxCell>
        <mxCell id="sWQFLFDqvg5RQWqIcEr5-20" style="edgeStyle=orthogonalEdgeStyle;rounded=0;orthogonalLoop=1;jettySize=auto;html=1;entryX=0.5;entryY=0;entryDx=0;entryDy=0;" edge="1" parent="1" source="sWQFLFDqvg5RQWqIcEr5-7" target="sWQFLFDqvg5RQWqIcEr5-19">
          <mxGeometry relative="1" as="geometry" />
        </mxCell>
        <mxCell id="sWQFLFDqvg5RQWqIcEr5-7" value="&lt;div&gt;&amp;nbsp; &amp;nbsp; {&lt;/div&gt;&lt;div&gt;&amp;nbsp; &amp;nbsp; &amp;nbsp; &quot;key&quot;: &quot;schedule&quot;,&lt;/div&gt;&lt;div&gt;&amp;nbsp; &amp;nbsp; &amp;nbsp; &quot;formula&quot;: [&lt;/div&gt;&lt;div&gt;&amp;nbsp; &amp;nbsp; &amp;nbsp; &amp;nbsp; &amp;nbsp; &quot;MODEL_SCRIPT_XYZ&quot;,&lt;/div&gt;&lt;div&gt;&amp;nbsp; &amp;nbsp; &amp;nbsp; &amp;nbsp; &amp;nbsp; &quot;Unique_identifier&quot;,&lt;/div&gt;&lt;div&gt;&amp;nbsp; &amp;nbsp; &amp;nbsp; &amp;nbsp; &amp;nbsp; &quot;args&quot;,&lt;/div&gt;&lt;div&gt;&amp;nbsp; &amp;nbsp; &amp;nbsp; &amp;nbsp; &amp;nbsp; &quot;kwargs&quot;&lt;/div&gt;&lt;div&gt;&amp;nbsp; &amp;nbsp; &amp;nbsp; ]&lt;/div&gt;&lt;div&gt;&amp;nbsp; &amp;nbsp; }&lt;/div&gt;" style="whiteSpace=wrap;html=1;aspect=fixed;align=left;fillColor=#fff2cc;strokeColor=#d6b656;" vertex="1" parent="1">
          <mxGeometry x="620" y="390" width="180" height="180" as="geometry" />
        </mxCell>
        <mxCell id="sWQFLFDqvg5RQWqIcEr5-17" style="edgeStyle=orthogonalEdgeStyle;rounded=0;orthogonalLoop=1;jettySize=auto;html=1;entryX=0.5;entryY=0;entryDx=0;entryDy=0;" edge="1" parent="1" source="sWQFLFDqvg5RQWqIcEr5-10" target="sWQFLFDqvg5RQWqIcEr5-12">
          <mxGeometry relative="1" as="geometry" />
        </mxCell>
        <mxCell id="sWQFLFDqvg5RQWqIcEr5-10" value="&lt;span style=&quot;text-align: left;&quot;&gt;&lt;b&gt;MODEL_SCRIPT_XYZ&lt;/b&gt;&lt;br&gt;normal operator that runs script&lt;/span&gt;" style="rounded=0;whiteSpace=wrap;html=1;fillColor=#e1d5e7;strokeColor=#9673a6;" vertex="1" parent="1">
          <mxGeometry x="300" y="365" width="180" height="60" as="geometry" />
        </mxCell>
        <mxCell id="sWQFLFDqvg5RQWqIcEr5-18" style="edgeStyle=orthogonalEdgeStyle;rounded=0;orthogonalLoop=1;jettySize=auto;html=1;entryX=0.5;entryY=0;entryDx=0;entryDy=0;" edge="1" parent="1" source="sWQFLFDqvg5RQWqIcEr5-12" target="sWQFLFDqvg5RQWqIcEr5-13">
          <mxGeometry relative="1" as="geometry" />
        </mxCell>
        <mxCell id="sWQFLFDqvg5RQWqIcEr5-12" value="&lt;span style=&quot;text-align: left;&quot;&gt;&lt;b&gt;Unique_identifier&lt;/b&gt;&lt;/span&gt;&lt;span style=&quot;text-align: left;&quot;&gt;&lt;br&gt;&lt;br&gt;searchs the script using this and runs the main fucntion&lt;/span&gt;" style="rounded=0;whiteSpace=wrap;html=1;fillColor=#e1d5e7;strokeColor=#9673a6;" vertex="1" parent="1">
          <mxGeometry x="300" y="455" width="180" height="70" as="geometry" />
        </mxCell>
        <mxCell id="sWQFLFDqvg5RQWqIcEr5-13" value="&lt;b&gt;Returns:&lt;/b&gt;&lt;br&gt;Same dict like data that XEMI returns" style="rounded=0;whiteSpace=wrap;html=1;fillColor=#e1d5e7;strokeColor=#9673a6;" vertex="1" parent="1">
          <mxGeometry x="300" y="555" width="180" height="60" as="geometry" />
        </mxCell>
        <mxCell id="sWQFLFDqvg5RQWqIcEr5-15" style="edgeStyle=orthogonalEdgeStyle;rounded=0;orthogonalLoop=1;jettySize=auto;html=1;entryX=0.444;entryY=-0.022;entryDx=0;entryDy=0;entryPerimeter=0;" edge="1" parent="1" source="sWQFLFDqvg5RQWqIcEr5-6" target="sWQFLFDqvg5RQWqIcEr5-7">
          <mxGeometry relative="1" as="geometry" />
        </mxCell>
        <mxCell id="sWQFLFDqvg5RQWqIcEr5-19" value="Output to be used same like JSON, no code change" style="rounded=0;whiteSpace=wrap;html=1;fillColor=#d5e8d4;strokeColor=#82b366;" vertex="1" parent="1">
          <mxGeometry x="620" y="640" width="180" height="60" as="geometry" />
        </mxCell>
        <mxCell id="sWQFLFDqvg5RQWqIcEr5-21" style="edgeStyle=orthogonalEdgeStyle;rounded=0;orthogonalLoop=1;jettySize=auto;html=1;entryX=0;entryY=0.694;entryDx=0;entryDy=0;entryPerimeter=0;" edge="1" parent="1" source="sWQFLFDqvg5RQWqIcEr5-13" target="sWQFLFDqvg5RQWqIcEr5-7">
          <mxGeometry relative="1" as="geometry" />
        </mxCell>
        <mxCell id="sWQFLFDqvg5RQWqIcEr5-27" value="&lt;h1 style=&quot;margin-top: 0px;&quot;&gt;&amp;nbsp; &amp;nbsp; Pros&lt;/h1&gt;&lt;p&gt;&lt;/p&gt;&lt;ol&gt;&lt;li&gt;&lt;font style=&quot;font-size: 14px;&quot;&gt;Instead of complex JSON simple python&lt;/font&gt;&lt;/li&gt;&lt;li&gt;&lt;font style=&quot;font-size: 14px;&quot;&gt;Faster execution as each operator calls another class&lt;/font&gt;&lt;/li&gt;&lt;li&gt;&lt;font style=&quot;font-size: 14px;&quot;&gt;Faster to implement&lt;/font&gt;&lt;/li&gt;&lt;li&gt;&lt;font style=&quot;font-size: 14px;&quot;&gt;We just need to call same operator and the UNIQUE_IDENTIER can be reused following DRY rules&lt;/font&gt;&lt;/li&gt;&lt;li&gt;&lt;font style=&quot;font-size: 14px;&quot;&gt;Easy to add chnages&amp;nbsp;&lt;/font&gt;&lt;/li&gt;&lt;li&gt;&lt;font style=&quot;font-size: 14px;&quot;&gt;Provides test coverage to the&amp;nbsp; entire main fucntion&lt;/font&gt;&lt;/li&gt;&lt;li&gt;&lt;font style=&quot;font-size: 14px;&quot;&gt;More secure&lt;/font&gt;&lt;/li&gt;&lt;li&gt;&lt;font style=&quot;font-size: 14px;&quot;&gt;More encryution as people can onlyu see IDENTIER NUMBER not the exact login&lt;/font&gt;&lt;/li&gt;&lt;/ol&gt;&lt;p&gt;&lt;/p&gt;" style="text;html=1;whiteSpace=wrap;overflow=hidden;rounded=0;fillColor=#e1d5e7;strokeColor=#9673a6;" vertex="1" parent="1">
          <mxGeometry x="40" y="360" width="220" height="355" as="geometry" />
        </mxCell>
      </root>
    </mxGraphModel>
  </diagram>
</mxfile>
